<?xml version="1.0" standalone="no"?>
<!DOCTYPE svg PUBLIC "-//W3C//DTD SVG 20010904//EN"
 "http://www.w3.org/TR/2001/REC-SVG-20010904/DTD/svg10.dtd">
<svg version="1.0" xmlns="http://www.w3.org/2000/svg"
 width="1024.000000pt" height="1024.000000pt" viewBox="0 0 1024.000000 1024.000000"
 preserveAspectRatio="xMidYMid meet">
<metadata>
Created by potrace 1.11, written by Peter Selinger 2001-2013
</metadata>
<g transform="translate(0.000000,1024.000000) scale(0.100000,-0.100000)"
fill="#000000" stroke="none">
<path d="M2510 5350 l0 -3600 1553 0 c934 0 1608 4 1692 10 712 51 1205 237
1542 582 146 149 277 356 363 573 44 111 95 315 116 470 26 182 26 582 1 745
-58 372 -189 675 -399 920 -209 243 -529 415 -921 495 -68 14 -127 25 -131 25
-3 0 -6 4 -6 9 0 5 33 17 73 26 427 104 732 347 912 728 115 244 165 488 165
803 0 549 -181 999 -519 1292 -291 251 -724 422 -1236 487 -253 31 -422 35
-1807 35 l-1398 0 0 -3600z m2645 3010 c623 -34 993 -128 1256 -321 217 -159
335 -391 369 -724 22 -206 2 -464 -50 -651 -153 -547 -633 -830 -1500 -884
-93 -5 -575 -10 -1102 -10 l-938 0 0 1300 0 1300 888 0 c488 0 973 -5 1077
-10z m220 -3180 c381 -21 683 -66 893 -136 488 -161 744 -451 829 -939 24
-141 24 -526 0 -680 -47 -301 -144 -514 -311 -681 -176 -176 -441 -293 -786
-348 -331 -53 -678 -66 -1827 -66 l-983 0 0 1430 0 1430 998 0 c548 0 1083 -5
1187 -10z"/>
</g>
</svg>
